<svg width="653" height="275" viewBox="0 0 653 275" fill="none" xmlns="http://www.w3.org/2000/svg">
<path d="M37.5743 3.744V11.88H24.1823V54H14.1023V11.88H0.71025V3.744H37.5743ZM68.1129 13.536C71.1369 13.536 73.8249 14.208 76.1769 15.552C78.5289 16.848 80.3529 18.792 81.6489 21.384C82.9929 23.928 83.6649 27 83.6649 30.6V54H73.5849V31.968C73.5849 28.8 72.7929 26.376 71.2089 24.696C69.6249 22.968 67.4649 22.104 64.7289 22.104C61.9449 22.104 59.7369 22.968 58.1049 24.696C56.5209 26.376 55.7289 28.8 55.7289 31.968V54H45.6489V0.719999H55.7289V19.08C57.0249 17.352 58.7529 16.008 60.9129 15.048C63.0729 14.04 65.4729 13.536 68.1129 13.536ZM131.051 33.192C131.051 34.632 130.955 35.928 130.763 37.08H101.603C101.843 39.96 102.851 42.216 104.627 43.848C106.403 45.48 108.587 46.296 111.179 46.296C114.923 46.296 117.587 44.688 119.171 41.472H130.043C128.891 45.312 126.683 48.48 123.419 50.976C120.155 53.424 116.147 54.648 111.395 54.648C107.555 54.648 104.099 53.808 101.027 52.128C98.0025 50.4 95.6265 47.976 93.8985 44.856C92.2185 41.736 91.3785 38.136 91.3785 34.056C91.3785 29.928 92.2185 26.304 93.8985 23.184C95.5785 20.064 97.9305 17.664 100.955 15.984C103.979 14.304 107.459 13.464 111.395 13.464C115.187 13.464 118.571 14.28 121.547 15.912C124.571 17.544 126.899 19.872 128.531 22.896C130.211 25.872 131.051 29.304 131.051 33.192ZM120.611 30.312C120.563 27.72 119.627 25.656 117.803 24.12C115.979 22.536 113.747 21.744 111.107 21.744C108.611 21.744 106.499 22.512 104.771 24.048C103.091 25.536 102.059 27.624 101.675 30.312H120.611ZM199.988 54H189.908L167.084 19.512V54H157.004V3.672H167.084L189.908 38.232V3.672H199.988V54ZM247.75 33.192C247.75 34.632 247.654 35.928 247.462 37.08H218.302C218.542 39.96 219.55 42.216 221.326 43.848C223.102 45.48 225.286 46.296 227.878 46.296C231.622 46.296 234.286 44.688 235.87 41.472H246.742C245.59 45.312 243.382 48.48 240.118 50.976C236.854 53.424 232.846 54.648 228.094 54.648C224.254 54.648 220.798 53.808 217.726 52.128C214.702 50.4 212.326 47.976 210.598 44.856C208.918 41.736 208.078 38.136 208.078 34.056C208.078 29.928 208.918 26.304 210.598 23.184C212.278 20.064 214.63 17.664 217.654 15.984C220.678 14.304 224.158 13.464 228.094 13.464C231.886 13.464 235.27 14.28 238.246 15.912C241.27 17.544 243.598 19.872 245.23 22.896C246.91 25.872 247.75 29.304 247.75 33.192ZM237.31 30.312C237.262 27.72 236.326 25.656 234.502 24.12C232.678 22.536 230.446 21.744 227.806 21.744C225.31 21.744 223.198 22.512 221.47 24.048C219.79 25.536 218.758 27.624 218.374 30.312H237.31ZM277.859 54L269.651 41.616L262.379 54H251.579L264.611 33.984L251.435 14.112H262.811L270.947 26.424L278.291 14.112H289.091L275.987 33.984L289.235 54H277.859ZM307.166 22.392V41.688C307.166 43.032 307.478 44.016 308.102 44.64C308.774 45.216 309.878 45.504 311.414 45.504H316.094V54H309.758C301.262 54 297.014 49.872 297.014 41.616V22.392H292.262V14.112H297.014V4.248H307.166V14.112H316.094V22.392H307.166ZM40.0223 221.296C40.0223 223.984 39.3743 226.504 38.0782 228.856C36.8303 231.208 34.8383 233.104 32.1023 234.544C29.4143 235.984 26.0063 236.704 21.8783 236.704H13.4543V256H3.37425V205.744H21.8783C25.7663 205.744 29.0783 206.416 31.8143 207.76C34.5503 209.104 36.5903 210.952 37.9343 213.304C39.3263 215.656 40.0223 218.32 40.0223 221.296ZM21.4463 228.568C24.2303 228.568 26.2943 227.944 27.6383 226.696C28.9823 225.4 29.6543 223.6 29.6543 221.296C29.6543 216.4 26.9183 213.952 21.4463 213.952H13.4543V228.568H21.4463ZM45.3069 235.912C45.3069 231.88 46.0989 228.304 47.6829 225.184C49.3149 222.064 51.4989 219.664 54.2349 217.984C57.0189 216.304 60.1149 215.464 63.5229 215.464C66.4989 215.464 69.0909 216.064 71.2989 217.264C73.5549 218.464 75.3549 219.976 76.6989 221.8V216.112H86.8509V256H76.6989V250.168C75.4029 252.04 73.6029 253.6 71.2989 254.848C69.0429 256.048 66.4269 256.648 63.4509 256.648C60.0909 256.648 57.0189 255.784 54.2349 254.056C51.4989 252.328 49.3149 249.904 47.6829 246.784C46.0989 243.616 45.3069 239.992 45.3069 235.912ZM76.6989 236.056C76.6989 233.608 76.2189 231.52 75.2589 229.792C74.2989 228.016 73.0029 226.672 71.3709 225.76C69.7389 224.8 67.9869 224.32 66.1149 224.32C64.2429 224.32 62.5149 224.776 60.9309 225.688C59.3469 226.6 58.0509 227.944 57.0429 229.72C56.0829 231.448 55.6029 233.512 55.6029 235.912C55.6029 238.312 56.0829 240.424 57.0429 242.248C58.0509 244.024 59.3469 245.392 60.9309 246.352C62.5629 247.312 64.2909 247.792 66.1149 247.792C67.9869 247.792 69.7389 247.336 71.3709 246.424C73.0029 245.464 74.2989 244.12 75.2589 242.392C76.2189 240.616 76.6989 238.504 76.6989 236.056ZM135.576 216.112L110.88 274.864H100.152L108.792 254.992L92.8078 216.112H104.112L114.408 243.976L124.848 216.112H135.576ZM191.266 215.536C196.162 215.536 200.098 217.048 203.074 220.072C206.098 223.048 207.61 227.224 207.61 232.6V256H197.53V233.968C197.53 230.848 196.738 228.472 195.154 226.84C193.57 225.16 191.41 224.32 188.674 224.32C185.938 224.32 183.754 225.16 182.122 226.84C180.538 228.472 179.746 230.848 179.746 233.968V256H169.666V233.968C169.666 230.848 168.874 228.472 167.29 226.84C165.706 225.16 163.546 224.32 160.81 224.32C158.026 224.32 155.818 225.16 154.186 226.84C152.602 228.472 151.81 230.848 151.81 233.968V256H141.73V216.112H151.81V220.936C153.106 219.256 154.762 217.936 156.778 216.976C158.842 216.016 161.098 215.536 163.546 215.536C166.666 215.536 169.45 216.208 171.898 217.552C174.346 218.848 176.242 220.72 177.586 223.168C178.882 220.864 180.754 219.016 183.202 217.624C185.698 216.232 188.386 215.536 191.266 215.536ZM254.975 235.192C254.975 236.632 254.879 237.928 254.687 239.08H225.527C225.767 241.96 226.775 244.216 228.551 245.848C230.327 247.48 232.511 248.296 235.103 248.296C238.847 248.296 241.511 246.688 243.095 243.472H253.967C252.815 247.312 250.607 250.48 247.343 252.976C244.079 255.424 240.071 256.648 235.319 256.648C231.479 256.648 228.023 255.808 224.951 254.128C221.927 252.4 219.551 249.976 217.823 246.856C216.143 243.736 215.303 240.136 215.303 236.056C215.303 231.928 216.143 228.304 217.823 225.184C219.503 222.064 221.855 219.664 224.879 217.984C227.903 216.304 231.383 215.464 235.319 215.464C239.111 215.464 242.495 216.28 245.471 217.912C248.495 219.544 250.823 221.872 252.455 224.896C254.135 227.872 254.975 231.304 254.975 235.192ZM244.535 232.312C244.487 229.72 243.551 227.656 241.727 226.12C239.903 224.536 237.671 223.744 235.031 223.744C232.535 223.744 230.423 224.512 228.695 226.048C227.015 227.536 225.983 229.624 225.599 232.312H244.535ZM285.156 215.536C289.908 215.536 293.748 217.048 296.676 220.072C299.604 223.048 301.068 227.224 301.068 232.6V256H290.988V233.968C290.988 230.8 290.196 228.376 288.612 226.696C287.028 224.968 284.868 224.104 282.132 224.104C279.348 224.104 277.14 224.968 275.508 226.696C273.924 228.376 273.132 230.8 273.132 233.968V256H263.052V216.112H273.132V221.08C274.476 219.352 276.18 218.008 278.244 217.048C280.356 216.04 282.66 215.536 285.156 215.536ZM323.11 224.392V243.688C323.11 245.032 323.422 246.016 324.046 246.64C324.718 247.216 325.822 247.504 327.358 247.504H332.038V256H325.702C317.206 256 312.958 251.872 312.958 243.616V224.392H308.206V216.112H312.958V206.248H323.11V216.112H332.038V224.392H323.11ZM412.676 205.744V256H402.596V223.312L389.132 256H381.5L367.964 223.312V256H357.884V205.744H369.332L385.316 243.112L401.3 205.744H412.676ZM460.442 235.192C460.442 236.632 460.346 237.928 460.154 239.08H430.994C431.234 241.96 432.242 244.216 434.018 245.848C435.794 247.48 437.978 248.296 440.57 248.296C444.314 248.296 446.978 246.688 448.562 243.472H459.434C458.282 247.312 456.074 250.48 452.81 252.976C449.546 255.424 445.538 256.648 440.786 256.648C436.946 256.648 433.49 255.808 430.418 254.128C427.394 252.4 425.018 249.976 423.29 246.856C421.61 243.736 420.77 240.136 420.77 236.056C420.77 231.928 421.61 228.304 423.29 225.184C424.97 222.064 427.322 219.664 430.346 217.984C433.37 216.304 436.85 215.464 440.786 215.464C444.578 215.464 447.962 216.28 450.938 217.912C453.962 219.544 456.29 221.872 457.922 224.896C459.602 227.872 460.442 231.304 460.442 235.192ZM450.002 232.312C449.954 229.72 449.018 227.656 447.194 226.12C445.37 224.536 443.138 223.744 440.498 223.744C438.002 223.744 435.89 224.512 434.162 226.048C432.482 227.536 431.45 229.624 431.066 232.312H450.002ZM480.256 224.392V243.688C480.256 245.032 480.568 246.016 481.192 246.64C481.864 247.216 482.968 247.504 484.504 247.504H489.184V256H482.848C474.352 256 470.104 251.872 470.104 243.616V224.392H465.352V216.112H470.104V206.248H480.256V216.112H489.184V224.392H480.256ZM519.618 215.536C522.642 215.536 525.33 216.208 527.682 217.552C530.034 218.848 531.858 220.792 533.154 223.384C534.498 225.928 535.17 229 535.17 232.6V256H525.09V233.968C525.09 230.8 524.298 228.376 522.714 226.696C521.13 224.968 518.97 224.104 516.234 224.104C513.45 224.104 511.242 224.968 509.61 226.696C508.026 228.376 507.234 230.8 507.234 233.968V256H497.154V202.72H507.234V221.08C508.53 219.352 510.258 218.008 512.418 217.048C514.578 216.04 516.978 215.536 519.618 215.536ZM563.187 256.648C559.347 256.648 555.891 255.808 552.819 254.128C549.747 252.4 547.323 249.976 545.547 246.856C543.819 243.736 542.955 240.136 542.955 236.056C542.955 231.976 543.843 228.376 545.619 225.256C547.443 222.136 549.915 219.736 553.035 218.056C556.155 216.328 559.635 215.464 563.475 215.464C567.315 215.464 570.795 216.328 573.915 218.056C577.035 219.736 579.483 222.136 581.259 225.256C583.083 228.376 583.995 231.976 583.995 236.056C583.995 240.136 583.059 243.736 581.187 246.856C579.363 249.976 576.867 252.4 573.699 254.128C570.579 255.808 567.075 256.648 563.187 256.648ZM563.187 247.864C565.011 247.864 566.715 247.432 568.299 246.568C569.931 245.656 571.227 244.312 572.187 242.536C573.147 240.76 573.627 238.6 573.627 236.056C573.627 232.264 572.619 229.36 570.603 227.344C568.635 225.28 566.211 224.248 563.331 224.248C560.451 224.248 558.027 225.28 556.059 227.344C554.139 229.36 553.179 232.264 553.179 236.056C553.179 239.848 554.115 242.776 555.987 244.84C557.907 246.856 560.307 247.864 563.187 247.864ZM589.517 235.912C589.517 231.88 590.309 228.304 591.893 225.184C593.525 222.064 595.733 219.664 598.517 217.984C601.301 216.304 604.397 215.464 607.805 215.464C610.397 215.464 612.869 216.04 615.221 217.192C617.573 218.296 619.445 219.784 620.837 221.656V202.72H631.061V256H620.837V250.096C619.589 252.064 617.837 253.648 615.581 254.848C613.325 256.048 610.709 256.648 607.733 256.648C604.373 256.648 601.301 255.784 598.517 254.056C595.733 252.328 593.525 249.904 591.893 246.784C590.309 243.616 589.517 239.992 589.517 235.912ZM620.909 236.056C620.909 233.608 620.429 231.52 619.469 229.792C618.509 228.016 617.213 226.672 615.581 225.76C613.949 224.8 612.197 224.32 610.325 224.32C608.453 224.32 606.725 224.776 605.141 225.688C603.557 226.6 602.261 227.944 601.253 229.72C600.293 231.448 599.813 233.512 599.813 235.912C599.813 238.312 600.293 240.424 601.253 242.248C602.261 244.024 603.557 245.392 605.141 246.352C606.773 247.312 608.501 247.792 610.325 247.792C612.197 247.792 613.949 247.336 615.581 246.424C617.213 245.464 618.509 244.12 619.469 242.392C620.429 240.616 620.909 238.504 620.909 236.056ZM646.09 256.504C644.266 256.504 642.754 255.952 641.554 254.848C640.402 253.696 639.826 252.28 639.826 250.6C639.826 248.92 640.402 247.528 641.554 246.424C642.754 245.272 644.266 244.696 646.09 244.696C647.866 244.696 649.33 245.272 650.482 246.424C651.634 247.528 652.21 248.92 652.21 250.6C652.21 252.28 651.634 253.696 650.482 254.848C649.33 255.952 647.866 256.504 646.09 256.504Z" fill="white"/>
</svg>
