<svg width="40" height="27" viewBox="0 0 40 27" fill="none" xmlns="http://www.w3.org/2000/svg">
<path d="M8.84591 17.013C8.38305 17.0945 7.91205 17.119 7.42482 17.1841L5.9387 12.8166V17.3716C5.47584 17.4204 5.05357 17.4856 4.61505 17.5508V9.20686H5.84943L7.53849 13.9411V9.20686H8.84591V17.013ZM11.4039 12.2625C11.9074 12.2625 12.6789 12.2381 13.1418 12.2381V13.5418C12.5652 13.5418 11.8912 13.5418 11.4039 13.5662V15.5056C12.1673 15.4567 12.9306 15.3914 13.7021 15.367V16.6218L10.1046 16.907V9.20686H13.7021V10.5106H11.4039V12.2625ZM18.5339 10.5106H17.1858V16.5078C16.7473 16.5078 16.3088 16.5078 15.8866 16.5241V10.5106H14.5386V9.20686H18.5339L18.5339 10.5106ZM20.6452 12.1729H22.4237V13.4766H20.6452V16.4345H19.3702V9.20686H23.0002V10.5106H20.6452V12.1729ZM25.1116 15.2937C25.8506 15.3099 26.5976 15.3671 27.3204 15.4078V16.6952C26.1592 16.6218 24.9979 16.5486 23.8123 16.5241V9.20686H25.1116V15.2937ZM28.4167 16.7849C28.8308 16.8093 29.2694 16.8338 29.6916 16.8826V9.20686H28.4167V16.7849ZM35.3843 9.20686L33.7357 13.1751L35.3843 17.5508C34.897 17.4856 34.4098 17.396 33.9225 17.3145L32.9887 14.9026L32.0386 17.119C31.5675 17.0374 31.1128 17.013 30.6419 16.9478L32.3147 13.1262L30.8042 9.20686H32.2009L33.0536 11.3988L33.9631 9.20686H35.3843Z" fill="#D81F26"/>
</svg>
