<svg width="26" height="31" viewBox="0 0 26 31" fill="none" xmlns="http://www.w3.org/2000/svg">
<path d="M7.36164 29.5862L7.89396 26.2158L6.70821 26.1884H1.04614L4.98099 1.31793C4.9927 1.24194 5.03142 1.17267 5.09009 1.12276C5.14875 1.07285 5.22345 1.04561 5.30058 1.04602H14.8476C18.0171 1.04602 20.2043 1.70347 21.3463 3.00112C21.8817 3.60987 22.2227 4.24601 22.3875 4.94608C22.5606 5.68063 22.5636 6.55825 22.3947 7.62863L22.3825 7.70676V8.39261L22.9178 8.69496C23.3265 8.90137 23.6939 9.18058 24.0018 9.5188C24.4598 10.0393 24.756 10.7008 24.8812 11.4851C25.0104 12.2917 24.9677 13.2515 24.756 14.3381C24.5117 15.588 24.1168 16.6767 23.5835 17.5675C23.1129 18.3655 22.4802 19.0567 21.726 19.5967C21.0176 20.0979 20.1758 20.4783 19.2242 20.7218C18.3021 20.9613 17.2507 21.082 16.0975 21.082H15.3545C14.8232 21.082 14.3072 21.2727 13.9021 21.6147C13.4976 21.9602 13.2292 22.4377 13.1448 22.962L13.0888 23.2654L12.1484 29.2058L12.1056 29.4239C12.0944 29.4929 12.0751 29.5274 12.0466 29.5507C12.019 29.5732 11.9846 29.5858 11.9489 29.5862H7.36164Z" fill="#253B80"/>
<path d="M23.4286 7.77009C23.4001 7.95189 23.3675 8.13775 23.3309 8.32869C22.0724 14.779 17.7671 17.0073 12.2684 17.0073H9.46866C8.7962 17.0073 8.22954 17.4948 8.12475 18.157L6.69133 27.2328L6.28541 29.8054C6.26924 29.9075 6.27541 30.0118 6.3035 30.1112C6.3316 30.2107 6.38094 30.3028 6.44814 30.3814C6.51533 30.46 6.59879 30.5231 6.69276 30.5664C6.78672 30.6097 6.88897 30.6321 6.99246 30.6322H11.9581C12.5461 30.6322 13.0456 30.2056 13.1382 29.6267L13.187 29.3748L14.122 23.4516L14.182 23.1266C14.2735 22.5456 14.7741 22.1191 15.3621 22.1191H16.1047C20.9157 22.1191 24.6819 20.169 25.7827 14.5261C26.2425 12.1688 26.0045 10.2005 24.7877 8.8162C24.4021 8.38796 23.9415 8.03347 23.4286 7.77009Z" fill="#179BD7"/>
<path d="M22.136 7.32463C21.7319 7.20864 21.3208 7.11812 20.9052 7.05359C20.0839 6.92837 19.2539 6.86829 18.4231 6.87392H10.9011C10.6148 6.8737 10.3379 6.9751 10.1204 7.15978C9.90297 7.34447 9.75926 7.60025 9.71529 7.8809L8.11513 17.9365L8.06909 18.2299C8.11894 17.9098 8.28262 17.6179 8.53052 17.4072C8.77842 17.1964 9.09417 17.0806 9.42063 17.0808H12.2363C17.7662 17.0808 22.0961 14.8526 23.3617 8.40673C23.3995 8.21589 23.4313 8.03012 23.4599 7.84842C23.1259 7.67466 22.7779 7.52899 22.4194 7.41294C22.3254 7.382 22.2309 7.35256 22.136 7.32463Z" fill="#222D65"/>
<path d="M9.79023 7.84673C9.83362 7.56487 9.97659 7.30794 10.1932 7.1226C10.4097 6.93727 10.6855 6.83583 10.9705 6.83672H18.4573C19.3443 6.83672 20.1722 6.89481 20.9278 7.01711C21.4391 7.09754 21.9434 7.21783 22.436 7.37689C22.8077 7.50021 23.1529 7.64595 23.4716 7.81412C23.8464 5.42208 23.4686 3.79342 22.1763 2.31865C20.7517 0.695087 18.1803 0 14.8901 0H5.33805C4.66595 0 4.09262 0.489211 3.98875 1.15474L0.0100915 26.3949C-0.00844046 26.5121 -0.00138969 26.6319 0.0307587 26.7461C0.0629072 26.8603 0.11939 26.9662 0.196323 27.0565C0.273255 27.1467 0.368811 27.2193 0.476418 27.269C0.584024 27.3188 0.701128 27.3447 0.819672 27.3448H6.71688L8.19755 17.9428L9.79023 7.84673Z" fill="#253B80"/>
</svg>
