<svg width="24" height="25" viewBox="0 0 24 25" fill="none" xmlns="http://www.w3.org/2000/svg">
<g clip-path="url(#clip0_38_1039)">
<path d="M16.4989 0.882629C15.2194 0.971129 13.7239 1.79012 12.8524 2.85662C12.0574 3.82411 11.4034 5.2611 11.6584 6.6576C13.0564 6.7011 14.5009 5.8626 15.3379 4.77811C16.1209 3.76861 16.7134 2.34062 16.4989 0.882629Z" fill="#B9B9B9"/>
<path d="M21.5554 8.93461C20.327 7.39412 18.6005 6.50012 16.97 6.50012C14.8175 6.50012 13.907 7.53062 12.4115 7.53062C10.8695 7.53062 9.69801 6.50312 7.83652 6.50312C6.00803 6.50312 4.06105 7.62062 2.82655 9.5316C1.09106 12.2226 1.38806 17.2821 4.20055 21.5915C5.20704 23.1335 6.55103 24.8675 8.30902 24.8825C9.87351 24.8975 10.3145 23.879 12.434 23.8685C14.5535 23.8565 14.9555 24.896 16.517 24.8795C18.2765 24.866 19.694 22.9445 20.7004 21.4025C21.4219 20.297 21.6904 19.7405 22.2499 18.4926C18.1805 16.9431 17.528 11.1561 21.5554 8.93461Z" fill="#B9B9B9"/>
</g>
<defs>
<clipPath id="clip0_38_1039">
<rect width="24" height="24" fill="white" transform="translate(0 0.882629)"/>
</clipPath>
</defs>
</svg>
