<svg width="24" height="30" viewBox="0 0 24 30" fill="none" xmlns="http://www.w3.org/2000/svg">
<path d="M6.81806 28.2398L7.30883 25.1226L6.21563 25.0972H0.995483L4.62322 2.09499C4.63402 2.02471 4.66972 1.96065 4.7238 1.91449C4.77789 1.86832 4.84676 1.84314 4.91787 1.84351H13.7198C16.6419 1.84351 18.6584 2.45157 19.7113 3.65175C20.2048 4.21477 20.5192 4.80313 20.6712 5.4506C20.8307 6.12998 20.8335 6.94167 20.6778 7.93165L20.6665 8.0039V8.63824L21.1601 8.91787C21.5369 9.10878 21.8756 9.36701 22.1595 9.67983C22.5817 10.1612 22.8548 10.773 22.9702 11.4984C23.0894 12.2444 23.05 13.1321 22.8548 14.1371C22.6296 15.2932 22.2655 16.3 21.7738 17.1239C21.34 17.862 20.7566 18.5012 20.0613 19.0007C19.4082 19.4642 18.6321 19.8161 17.7548 20.0413C16.9046 20.2628 15.9353 20.3744 14.8721 20.3744H14.1871C13.6972 20.3744 13.2215 20.5508 12.848 20.8671C12.4751 21.1867 12.2277 21.6283 12.1499 22.1132L12.0983 22.3938L11.2312 27.8879L11.1918 28.0897C11.1815 28.1535 11.1637 28.1854 11.1374 28.207C11.1119 28.2278 11.0802 28.2394 11.0473 28.2398H6.81806Z" fill="#253B80"/>
<path d="M21.6275 8.07709C21.6012 8.24506 21.5712 8.41678 21.5374 8.59319C20.3766 14.5528 16.4054 16.6116 11.3335 16.6116H8.75116C8.13089 16.6116 7.60822 17.062 7.51157 17.6738L6.18941 26.0591L5.815 28.4359C5.80008 28.5302 5.80578 28.6266 5.83169 28.7185C5.8576 28.8104 5.90311 28.8955 5.9651 28.9681C6.02708 29.0407 6.10405 29.099 6.19073 29.139C6.2774 29.179 6.37171 29.1997 6.46717 29.1998H11.0473C11.5897 29.1998 12.0505 28.8057 12.1359 28.2708L12.1809 28.0381L13.0433 22.5655L13.0986 22.2652C13.1831 21.7285 13.6448 21.3344 14.1871 21.3344H14.8721C19.3097 21.3344 22.7835 19.5327 23.7988 14.3191C24.223 12.1412 24.0034 10.3226 22.8811 9.04361C22.5254 8.64796 22.1006 8.32043 21.6275 8.07709Z" fill="#179BD7"/>
<path d="M20.4132 7.59287C20.0426 7.48566 19.6656 7.40198 19.2844 7.34233C18.5312 7.22657 17.7699 7.17103 17.0079 7.17624H10.109C9.84645 7.17603 9.59249 7.26977 9.39303 7.44049C9.19356 7.61121 9.06176 7.84766 9.02143 8.1071L7.55382 17.4026L7.5116 17.6738C7.55732 17.3779 7.70744 17.1081 7.9348 16.9132C8.16217 16.7184 8.45176 16.6114 8.75118 16.6115H11.3336C16.4055 16.6115 20.3766 14.5518 21.5374 8.59318C21.5721 8.41676 21.6012 8.24504 21.6275 8.07707C21.3212 7.91645 21.002 7.78179 20.6732 7.67451C20.587 7.64591 20.5003 7.61869 20.4132 7.59287Z" fill="#222D65"/>
<path d="M9.0214 8.10713C9.06138 7.84762 9.19311 7.61106 9.39268 7.44043C9.59224 7.26979 9.8464 7.17639 10.109 7.17721H17.0079C17.8252 7.17721 18.5881 7.2307 19.2843 7.3433C19.7555 7.41735 20.2202 7.5281 20.6741 7.67455C21.0166 7.78809 21.3347 7.92227 21.6284 8.07711C21.9737 5.87475 21.6256 4.37524 20.4348 3.01742C19.122 1.5226 16.7526 0.882629 13.7207 0.882629H4.91885C4.29952 0.882629 3.77122 1.33305 3.67551 1.9458L0.00929897 25.1845C-0.00777762 25.2924 -0.00128056 25.4027 0.0283432 25.5079C0.057967 25.613 0.110014 25.7105 0.180905 25.7936C0.251796 25.8767 0.339848 25.9435 0.439004 25.9893C0.53816 26.0351 0.646067 26.0589 0.755302 26.0591H6.1894L7.55379 17.4026L9.0214 8.10713Z" fill="#253B80"/>
</svg>
