<svg width="24" height="25" viewBox="0 0 24 25" fill="none" xmlns="http://www.w3.org/2000/svg">
<path fill-rule="evenodd" clip-rule="evenodd" d="M8.4277 3.88263C8.8477 3.88263 9.1887 4.21701 9.1887 4.62985C9.1887 5.0417 8.8487 5.37608 8.4277 5.37608L6.7987 5.37706C5.4467 5.37903 4.3467 6.45867 4.3467 7.78542V9.64464C4.3467 10.0565 4.0047 10.3919 3.5847 10.3919C3.1647 10.3919 2.8237 10.0565 2.8237 9.64464V7.78542C2.8237 5.63594 4.6067 3.88557 6.7977 3.88361L8.4267 3.88263H8.4277ZM15.6006 3.88292H17.1936C19.3906 3.88292 21.1766 5.63428 21.1766 7.78866V9.64493C21.1766 10.0568 20.8366 10.3921 20.4156 10.3921C19.9956 10.3921 19.6546 10.0568 19.6546 9.64493V7.78866C19.6546 6.45798 18.5506 5.3754 17.1936 5.3754H15.6006C15.1806 5.3754 14.8396 5.04199 14.8396 4.63014C14.8396 4.21731 15.1806 3.88292 15.6006 3.88292ZM14.7625 7.62529H9.2385C7.9745 7.63803 6.9585 8.651 6.9695 9.89145V11.1368C6.9725 11.2819 7.0915 11.4006 7.2395 11.4055H16.7595C16.9085 11.4016 17.0275 11.2829 17.0325 11.1368V9.89145C17.0335 9.29231 16.7975 8.7167 16.3715 8.28817C15.9485 7.86357 15.3675 7.62529 14.7625 7.62529ZM1.762 12.9239H22.239C22.659 12.9239 23 13.2582 23 13.6711C23 14.0829 22.659 14.4163 22.239 14.4163H21.177V17.9759C21.177 20.1313 19.39 21.8826 17.194 21.8826H15.601C15.18 21.8826 14.839 21.5482 14.839 21.1354C14.839 20.7236 15.18 20.3892 15.601 20.3892H17.194C18.551 20.3892 19.655 19.3076 19.655 17.9759V14.4163H17.032V15.4077C17.042 16.6482 16.027 17.6621 14.762 17.6739H9.238C7.974 17.6621 6.959 16.6482 6.969 15.4077V14.4163H4.346V17.9798C4.346 19.3066 5.447 20.3862 6.8 20.3882L8.428 20.3892C8.848 20.3892 9.189 20.7236 9.189 21.1354C9.188 21.5482 8.848 21.8826 8.427 21.8826L6.798 21.8816C4.607 21.8797 2.823 20.1293 2.823 17.9798V14.4163H1.762C1.342 14.4163 1 14.0829 1 13.6711C1 13.2582 1.342 12.9239 1.762 12.9239Z" fill="#00F6FF"/>
</svg>
